<?xml version="1.0" encoding="utf-8"?>
<!-- Generator: Adobe Illustrator 20.1.0, SVG Export Plug-In . SVG Version: 6.00 Build 0)  -->
<svg version="1.1" baseProfile="tiny" id="Layer_1" xmlns="http://www.w3.org/2000/svg" xmlns:xlink="http://www.w3.org/1999/xlink"
	 x="0px" y="0px" viewBox="0 0 145 24" xml:space="preserve">
<g id="Icon">
	<path id="mountain_3_" fill="#1ACAFE" d="M134.61,9.05L141,19h-4c0-4-4-5-4-7.5C133,10,134.61,9.05,134.61,9.05z M132,12
		c0-2,2.28-3.45,2.28-3.45L132,5l-3,5l-1-2l-7,11h13.5C136,16,132,15,132,12z"/>
</g>
<g id="WordMark">
	<path id="fatmap_3_" fill="#1ACAFE" d="M117.5,5H112v14h1v-5h4.5c2.48,0,4.5-2.02,4.5-4.5S119.98,5,117.5,5z M117.5,13H113V6h4.5
		c1.93,0,3.5,1.57,3.5,3.5S119.43,13,117.5,13z M103,5l-6,14h1l2.12-5h6.77l2.12,5h1l-6-14H103z M100.54,13l2.96-7l2.96,7H100.54z
		 M95,5v14h-1V6.5L88.17,15h-0.33L82,6.5V19h-1V5h1l6,8.75L94,5H95z M79,5v1h-5v13h-1V6h-4.5L68,5H79z M63,5l-6,14h1l2.12-5h6.77
		L69,19h1L64,5H63z M60.54,13l2.96-7l2.96,7H60.54z M50,11h5.5L55,12h-5v7h-1V5h9l-0.5,1H50V11z"/>
</g>
<path id="AddOnLeftPoweredBy" fill="#1ACAFE" d="M6.76,10.12c-0.18-0.08-0.37-0.14-0.59-0.14c-0.28,0-0.52,0.05-0.72,0.17
	c-0.21,0.11-0.39,0.25-0.55,0.44L4.82,10.2C4.78,10.09,4.7,10,4.58,10H4v5h1v-1.33c0,0.12,0.24,0.21,0.39,0.28s0.32,0.1,0.54,0.1
	c0.26,0,0.49-0.05,0.7-0.16c0.21-0.1,0.39-0.25,0.53-0.43c0.15-0.18,0.26-0.4,0.34-0.65s0.12-0.52,0.12-0.82
	C7.63,11.67,7.55,10.46,6.76,10.12z M5.73,13.34c-0.15,0-0.27-0.03-0.4-0.08C5.2,13.2,5,13.11,5,12.98v-1.77
	c0-0.15,0.23-0.27,0.36-0.35c0.14-0.08,0.28-0.12,0.48-0.12c0.81,0,0.8,1.03,0.8,1.26C6.65,12.23,6.64,13.34,5.73,13.34z
	 M11.92,11.18c-0.09-0.25-0.5-1.18-1.81-1.18c-1.32,0-1.72,0.93-1.82,1.18c-0.09,0.25-0.14,0.53-0.14,0.84s0.05,0.59,0.14,0.85
	c0.09,0.25,0.48,1.19,1.82,1.19c1.35,0,1.71-0.94,1.81-1.19c0.09-0.25,0.14-0.53,0.14-0.85C12.06,11.71,12.01,11.43,11.92,11.18z
	 M10.11,13.33c-0.92,0-0.98-0.88-0.98-1.3s0.05-1.31,0.98-1.31c0.91,0,0.96,0.88,0.96,1.31C11.08,12.45,11.01,13.33,10.11,13.33z
	 M12.32,10h0.76c0.07,0,0.13,0.04,0.18,0.08s0.08,0.09,0.1,0.14c0,0,0.68,2.68,0.7,2.78c0.03-0.11,0.85-2.78,0.85-2.78
	c0.02-0.05,0.05-0.12,0.09-0.15c0.05-0.03,0.1-0.07,0.16-0.07h0.42c0.07,0,0.12,0.04,0.17,0.07s0.08,0.09,0.09,0.14
	c0,0,0.79,2.69,0.81,2.8c0.02-0.11,0.73-2.78,0.73-2.78c0.02-0.05,0.05-0.12,0.1-0.15c0.05-0.03,0.1-0.08,0.17-0.08h0.72l-1.25,4
	h-0.76c-0.09,0-0.15-0.06-0.18-0.17c0,0-0.79-2.59-0.82-2.73c-0.03,0.15-0.83,2.73-0.83,2.73C14.47,13.94,14.4,14,14.3,14h-0.73
	L12.32,10z M21.73,12.98c-0.06,0-0.12,0.02-0.18,0.05c-0.06,0.04-0.42,0.28-0.91,0.28c-0.32,0-0.66-0.22-0.75-0.31
	c-0.09-0.1-0.17-0.25-0.22-0.4c-0.12-0.3-0.11-0.6-0.11-0.6H22c0.09,0,0.1,0,0.18,0c0.06,0,0.05-0.07,0.05-0.22
	c0-0.28-0.09-0.95-0.48-1.32c-0.27-0.26-0.67-0.47-1.23-0.47c-0.86,0-1.22,0.4-1.39,0.57c-0.35,0.35-0.51,0.89-0.51,1.38
	c0,0.81,0.28,1.29,0.56,1.57c0.51,0.51,1.11,0.54,1.38,0.54c0.14,0,0.28-0.01,0.43-0.03c0.15-0.02,0.29-0.06,0.43-0.11
	c0.14-0.05,0.28-0.12,0.41-0.2s0.25-0.19,0.35-0.31l-0.27-0.35C21.86,13.01,21.81,12.98,21.73,12.98z M19.87,10.83
	c0.16-0.16,0.37-0.23,0.65-0.23c0.59,0,0.76,0.44,0.79,0.55c0.03,0.11,0.05,0.23,0.05,0.35h-1.79
	C19.62,11.21,19.72,10.99,19.87,10.83z M23,14v-4h0.49c0.1,0,0.17,0.05,0.2,0.08c0.04,0.03,0.06,0.11,0.08,0.2l0.05,0.45
	c0.13-0.24,0.27-0.42,0.44-0.55s0.37-0.2,0.6-0.2c0.18,0,0.33,0.04,0.44,0.12l-0.06,0.71c-0.01,0.05-0.03,0.08-0.06,0.1
	c-0.02,0.02-0.06,0.03-0.1,0.03s-0.1-0.01-0.17-0.02c-0.08-0.01-0.15-0.02-0.22-0.02c-0.11,0-0.2,0.01-0.28,0.05
	c-0.22,0.09-0.41,0.2-0.41,0.62V14H23z M32,8v2.37c0-0.12-0.28-0.39-0.75-0.39c-1.18,0-1.54,0.99-1.62,1.24s-0.13,0.52-0.13,0.82
	c0,0.32,0.03,0.61,0.11,0.86c0.07,0.25,0.36,1.16,1.39,1.16c0.83,0,1.02-0.52,1.1-0.61l0.08,0.38C32.22,13.94,32.3,14,32.43,14H33V8
	H32z M32,12.83c0,0.15-0.3,0.47-0.66,0.47c-0.13,0-0.25-0.02-0.35-0.07c-0.1-0.05-0.49-0.24-0.49-1.2c0-0.23,0.02-0.43,0.06-0.59
	c0.19-0.72,0.7-0.74,0.85-0.74c0.39,0,0.59,0.23,0.59,0.36V12.83z M38.1,9.99c-0.55,0-1.1,0.38-1.1,0.55V8h-1v6h0.62
	c0.06,0,0.11-0.01,0.15-0.04s0.06-0.08,0.08-0.14l0.04-0.27c0.38,0.52,0.88,0.51,1,0.51c0.24,0,0.46-0.06,0.66-0.15
	c0.89-0.41,0.96-1.66,0.96-1.98C39.51,10.95,39.11,9.99,38.1,9.99z M38.5,12.58c-0.04,0.17-0.1,0.32-0.18,0.43
	c-0.08,0.11-0.17,0.19-0.28,0.25c-0.11,0.05-0.23,0.08-0.37,0.08c-0.13,0-0.24-0.03-0.36-0.08s-0.3-0.15-0.3-0.28v-1.77
	c0-0.15,0.21-0.27,0.34-0.35s0.26-0.12,0.43-0.12c0.26,0,0.45,0.1,0.59,0.29s0.2,0.51,0.2,0.94C38.56,12.2,38.54,12.41,38.5,12.58z
	 M28.62,12.98c-0.06,0-0.12,0.02-0.18,0.05c-0.06,0.04-0.42,0.28-0.91,0.28c-0.32,0-0.66-0.22-0.75-0.31
	c-0.09-0.1-0.17-0.25-0.22-0.4c-0.12-0.3-0.11-0.6-0.11-0.6h2.44c0.09,0,0.1,0,0.18,0c0.06,0,0.05-0.07,0.05-0.22
	c0-0.28-0.09-0.95-0.48-1.32c-0.27-0.26-0.67-0.47-1.23-0.47c-0.86,0-1.22,0.4-1.39,0.57c-0.35,0.35-0.51,0.89-0.51,1.38
	c0,0.81,0.28,1.29,0.56,1.57c0.51,0.51,1.11,0.54,1.38,0.54c0.14,0,0.28-0.01,0.43-0.03c0.15-0.02,0.29-0.06,0.43-0.11
	c0.14-0.05,0.28-0.12,0.41-0.2s0.25-0.19,0.35-0.31l-0.27-0.35C28.76,13.01,28.7,12.98,28.62,12.98z M26.77,10.83
	c0.16-0.16,0.37-0.23,0.65-0.23c0.59,0,0.76,0.44,0.79,0.55c0.03,0.11,0.05,0.23,0.05,0.35h-1.79
	C26.51,11.21,26.61,10.99,26.77,10.83z M41.85,14.77c-0.03,0.07-0.06,0.13-0.11,0.17C41.7,14.97,41.63,15,41.54,15h-0.71l0.74-1.32
	L39.97,10h0.83c0.08,0,0.13,0.05,0.18,0.08c0.04,0.04,0.07,0.09,0.09,0.14l0.84,2.05c0.05,0.14,0.09,0.28,0.13,0.42
	c0.02-0.07,0.04-0.14,0.07-0.21c0.02-0.07,0.05-0.14,0.08-0.21l0.79-2.04c0.02-0.05,0.05-0.12,0.1-0.15S43.18,10,43.24,10H44
	L41.85,14.77z"/>
</svg>
