<svg version="1.2" baseProfile="tiny" xmlns="http://www.w3.org/2000/svg" viewBox="0 0 419.6 173.5"><path fill="none" d="M347.5 77.8c-2.5 0-4.7 1.2-6.2 3.3-.7 1.1-1.1 1.9-1.5 3.2h12c.2-.7.2-1.3.2-1.9 0-.4 0-.9-.1-1.3-.4-2.2-2-3.3-4.4-3.3zM214.7 94c-.1.4-.1.7-.1 1 0 .5.1 1 .4 1.4.6.7 1.7 1.1 3.3 1.1 2.4 0 3.8-.2 5.5-1.5 1-.7 1.7-2 2.2-4.1 0 0 .3-1 .4-1.5H220c-2.8.1-4.7 1.4-5.3 3.6zM354.3 122.1c.5 0 1-.2 1.4-.5.7-.5 1-1.5 1.3-2.6.3-1.1.5-2 0-2.6-.2-.3-.6-.5-1.1-.5-.5 0-1 .2-1.3.5-.7.6-1 1.5-1.3 2.6-.3 1.1-.5 2 0 2.6.1.3.5.5 1 .5zM386.7 55.6c0 2 1.5 3.6 3.5 3.6s3.5-1.6 3.5-3.6-1.5-3.5-3.5-3.5-3.5 1.5-3.5 3.5zm5.2-1c0 .7-.4 1.1-.9 1.3l1 2h-1l-1-1.9h-.6v1.9h-.9v-4.7h1.8c1 0 1.6.7 1.6 1.4zM243.9 116.9c-.1-.6-.6-1.1-1.5-1.1s-1.6.5-2.1 1.1c-.3.4-.4.7-.5 1.1h4c.2-.4.2-.7.1-1.1z"/><path fill="none" d="M391.1 54.6c0-.4-.3-.7-.8-.7h-.8v1.4h.8c.5.1.8-.3.8-.7zM309.7 116.9c-.1-.6-.6-1.1-1.5-1.1s-1.6.5-2.1 1.1c-.3.4-.4.7-.5 1.1h4c.2-.4.2-.7.1-1.1zM320.9 116.9c-.1-.6-.6-1.1-1.5-1.1s-1.6.5-2.1 1.1c-.3.4-.4.7-.5 1.1h4c.1-.4.2-.7.1-1.1zM68.8 77.8c-3.4 0-5.3 2.1-6.2 3.3-.7 1.1-1.1 1.9-1.5 3.2h12c.2-.7.2-1.3.2-1.9 0-.4 0-.9-.1-1.3-.4-2.2-2-3.3-4.4-3.3zM284.8 120.4l.1-.6h-2.1c-1 0-1.6.4-1.8 1.2-.2.7.2 1.2 1.2 1.2.7 0 1.2-.1 1.8-.5.4-.2.6-.6.8-1.3zM312.5 77.8c-2.5 0-4.7 1.2-6.2 3.3-.7 1.1-1.1 1.9-1.5 3.2h12c.1-.7.2-1.3.2-1.9 0-.4 0-.9-.1-1.4-.4-2.1-2-3.2-4.4-3.2z"/><path fill="#4B4B4D" d="M188.6 113.7h-1.9l-3.8 6.6-.1-6.6H180l.6 10.6h2.1l3.9-6.6.6 6.6h2.2l5.9-10.6h-2.8l-3.4 6.6zM198.2 124.3l3.9-6.6.5 6.6h2.2l5.9-10.6h-2.8l-3.3 6.6-.5-6.6h-2l-3.8 6.6-.1-6.6h-2.8l.6 10.6zM223.4 113.7l-3.4 6.6-.5-6.6h-1.9l-3.9 6.6v-6.6h-2.8l.6 10.6h2.1l3.9-6.6.6 6.6h2.2l5.9-10.6zM228 121.3h-3.1l-.7 3h3zM236.3 109.8h-2.6l-2.9 11.5c-.4 1.5.1 3 2.3 3h1.5l.6-2.2h-1c-.7 0-.9-.3-.7-1l2.8-11.3zM246 119.8l.3-1.2c.7-2.9-.4-5.1-3.3-5.1-2.7 0-5.1 2-6 5.4-1.1 4.3 1 5.4 3.5 5.4 1.9 0 3.1-.6 4.5-1.7l-1.2-1.6c-.8.7-1.5 1-2.7 1-1.5 0-2.1-1-1.7-2.4h6.6zm-5.6-2.9c.4-.6 1.2-1.1 2.1-1.1s1.4.5 1.5 1.1c.1.4.1.7 0 1.1h-4c0-.4.1-.7.4-1.1zM253 115.8c.9 0 1.8.2 2.3.7l2-1.7c-.8-1-2.1-1.2-3.7-1.2-2.2 0-4.4 1.2-5 3.4-.5 2 .5 2.8 2.3 3l1.6.2c.8.1 1 .4.9 1-.2.8-1.2 1.1-2.2 1.1-.8 0-1.9-.1-2.6-1l-2.2 1.7c1 1.3 2.5 1.5 4.1 1.5 2.5 0 4.8-1.1 5.4-3.5.5-1.8-.3-2.9-2.4-3.1l-1.6-.2c-.9-.1-1-.5-.9-.9.4-.5 1-1 2-1zM268.6 113.9c.6-2.4-.8-4.1-3.4-4.1-2.4 0-4.8 1.5-5.5 4.1h2.6c.3-1.1 1.2-1.8 2.2-1.8 1 0 1.6.6 1.3 1.9-.3 1-1 1.8-2.3 1.8h-.4l-.6 2.3h.4c1.3 0 1.8.8 1.5 2-.3 1.3-1.3 2-2.5 2-1 0-1.8-.6-1.5-1.9h-2.6c-.7 3 1.2 4.3 3.5 4.3 2.5 0 5-1.4 5.7-4.3.4-1.7-.1-2.7-1-3.3 1.2-.6 2.2-1.5 2.6-3zM276.9 113.7l-3.8 6.6-.5-6.6h-2.8l1.3 10.6h2l6.6-10.6zM286.4 124.3l1.8-7c.6-2.5-.6-3.7-3.6-3.7-1.8 0-2.9.3-4.2 1.5l1.3 1.6c.7-.6 1.2-.9 2.3-.9 1.4 0 1.8.5 1.6 1.7l-.1.5H283c-2.5 0-4 1.4-4.4 3.1-.2.9-.1 1.8.3 2.4.5.6 1.3.9 2.5.9s2-.3 2.9-1l-.2.9h2.3zm-2.4-2.5c-.6.5-1.1.5-1.8.5-1 0-1.4-.5-1.2-1.2.2-.8.8-1.2 1.8-1.2h2.1l-.1.6c-.2.6-.4 1-.8 1.3zM295.5 109.8h-2.6l-2.9 11.5c-.4 1.5.1 3 2.3 3h1.5l.6-2.2h-1c-.7 0-.9-.3-.7-1l2.8-11.3zM302.1 109.8h-2.7l-2.9 11.5c-.4 1.5.1 3 2.3 3h1.5l.6-2.2h-1c-.7 0-.9-.3-.7-1l2.9-11.3zM311.8 119.8l.3-1.2c.7-2.9-.4-5.1-3.3-5.1-2.7 0-5.1 2-6 5.4-1.1 4.3 1 5.4 3.5 5.4 1.9 0 3.1-.6 4.5-1.7l-1.2-1.6c-.8.7-1.5 1-2.7 1-1.5 0-2.1-1-1.7-2.4h6.6zm-5.6-2.9c.4-.6 1.2-1.1 2.1-1.1.9 0 1.4.5 1.5 1.1.1.4.1.7 0 1.1h-4c0-.4.1-.7.4-1.1zM323 119.8l.3-1.2c.7-2.9-.4-5.1-3.3-5.1-2.7 0-5.1 2-6 5.4-1.1 4.3 1 5.4 3.5 5.4 1.9 0 3.1-.6 4.5-1.7l-1.2-1.6c-.8.7-1.5 1-2.7 1-1.5 0-2.1-1-1.7-2.4h6.6zm-5.7-2.9c.4-.6 1.2-1.1 2.1-1.1.9 0 1.4.5 1.5 1.1.1.4.1.7 0 1.1h-4c0-.4.2-.7.4-1.1zM330 115.8c.9 0 1.8.2 2.3.7l2-1.7c-.8-1-2.1-1.2-3.7-1.2-2.2 0-4.4 1.2-5 3.4-.5 2 .5 2.8 2.3 3l1.6.2c.8.1 1 .4.9 1-.2.8-1.2 1.1-2.2 1.1-.8 0-1.9-.1-2.6-1l-2.2 1.7c1 1.3 2.5 1.5 4.1 1.5 2.5 0 4.8-1.1 5.4-3.5.5-1.8-.3-2.9-2.4-3.1l-1.6-.2c-.9-.1-1-.5-.9-.9.4-.5 1-1 2-1zM337.4 124.3l.8-3h-3.1l-.7 3zM344.9 116.7c.5-.5 1.1-.7 1.7-.7.7 0 1.1.2 1.5.8l2.2-1.8c-.7-1-1.7-1.4-3.1-1.4-2.1 0-5 1.1-6.1 5.4-1.1 4.3 1.2 5.4 3.4 5.4 1.5 0 2.7-.5 3.9-1.4l-1.3-1.8c-.7.6-1.2.8-1.9.8-.6 0-1.1-.2-1.3-.7-.3-.5-.3-1.2 0-2.4.1-1 .5-1.7 1-2.2zM353.7 124.4c1.6 0 2.8-.6 3.6-1.3 1.2-1 1.8-2.2 2.3-4.1.5-1.9.5-3.1-.2-4.1-.5-.7-1.4-1.3-3-1.3s-2.8.6-3.6 1.3c-1.2 1-1.8 2.2-2.2 4.1-.5 1.9-.5 3.1.2 4.1.4.7 1.3 1.3 2.9 1.3zm-.5-5.4c.3-1.1.6-2 1.3-2.6.4-.3.8-.5 1.3-.5s.9.2 1.1.5c.4.6.2 1.5 0 2.6-.3 1.1-.6 2-1.3 2.6-.4.3-.8.5-1.4.5-.5 0-.9-.2-1.1-.5-.3-.6-.1-1.5.1-2.6zM363.4 113.7l-2.7 10.6h2.6l1.6-6.4c.4-1.4 1.4-1.9 2.3-1.9.8 0 1.6.5 1.3 1.9l-1.6 6.4h2.6l1.6-6.5c.3-1.4 1.4-1.9 2.2-1.9.8 0 1.6.5 1.3 1.9l-1.6 6.4h2.6l1.7-6.8c.3-1.2.2-2.2-.4-3-.4-.6-1.3-.9-2.4-.9-1.3 0-2.4.4-3.5 1.3-.4-.9-1.3-1.3-2.5-1.3-1 0-2.1.4-2.9 1.1l.2-1h-2.4z"/><path fill="#DC002E" d="M68 124.6c-2.3 19.1 7.7 45.4 60.5 21.9-28.4 6.7-60.2-3-60.5-21.9z"/><path fill="#87888A" d="M144.7 9.7c17.6 1 39 16.5 28.9 37.1 16.7-23-2.5-37.6-22.7-37.6-2 0-4.1.2-6.2.5zM86.1 156c-2.1-.4-4.1-.9-6-1.5 3.7 4.1 8.7 6.5 14.6 7.6-3.3-1.2-6.2-3.2-8.6-6.1z"/><path fill="#87888A" d="M169.8 34.8c-1.1 6-4.1 10.7-4.1 10.7s.5-24.4-43.7-17.2c-3.3 4.1-6.5 8-6.5 8-.2.2-.3.4-.3.7 0 .6.5 1.1 1.1 1.1.2 0 .3-.1.5-.1 24.9-8.7 42.8-3.9 41.1 4-.6.9-1.6 2-2.7 3.1-10.5 11.1-25.4 18-25.4 30.3 0 13.3 12.6 17.1 17 27.7 1.1 2.7 1.5 4.8 1.5 7.8 0 .6-.1 1.9-.1 1.9-2.2 25.7-47.7 40.2-62 22.5-3.2-3.7-4.2-8.6-4.2-13.3 0-3.9 1.3-7.6 3.4-10.6.2-.3.3-.5.3-.8 0-.6-.5-1.1-1.1-1.1-.2 0-.5.1-.7.2-6.5 4.7-11 12.1-11.7 20.5 10.8 18.8 47.1 21 67.1 11.5 1.8-1 3.6-1.9 5.4-3-1.8 2.4-3.9 4.7-6.1 7-6.4 6.5-13.4 11.3-20.2 14.2 9.4-3 19.1-8.3 27.9-15.8 16.2-13.8 25.3-31.3 25-45.5 0-14.3-11.6-20.7-11.6-31.1 0-8.4 12.7-15.6 12.7-25 .1-2.8-.9-5.3-2.6-7.7zm-19 81.9c13-28.8-37.6-34.7-6.8-57.3-12.7 12 30 23.3 6.8 57.3z"/><path fill="#FFF" d="M143.9 59.4c-30.8 22.6 19.8 28.5 6.8 57.3 23.3-34-19.4-45.3-6.8-57.3z"/><path fill="#0062A7" d="M166.3 42.4s19-39.8-42-24.6l-7.1 7.5c49.1-6.7 49.1 17.1 49.1 17.1z"/><path fill="#4B4B4D" d="M32.8 104.5h12.7l1.9-7.5H36.1c-.9 0-1.5-.2-1.8-.6-.3-.4-.3-1.1-.1-2.1l9.1-35.8h-8.8l-9.2 36.1c-.7 2.9-.4 5.4 1 7.2 1.3 1.8 3.5 2.7 6.5 2.7zM96.9 97.3c-2.4 0-5.8-.3-7.9-3l-.1-.3-7.2 5.8.2.2c3.4 4.5 8.4 4.9 13.2 4.9 8.8 0 15.4-4.2 17.1-11.1.7-2.8.5-5.1-.7-6.9-1.3-1.8-3.6-2.9-6.9-3.2l-5.1-.5c-1.2-.1-2-.4-2.3-.9-.3-.4-.3-.9-.2-1.6.4-1.4 2-3 5.3-3 3.4 0 5.7.7 7 2.1l.1.2 6.8-5.5-.2-.2c-2.2-2.8-5.9-4-11.9-4-6.3 0-13.9 3.4-15.8 10.8-.7 2.8-.5 5 .6 6.6 1.2 1.8 3.5 2.8 6.9 3.1l5.1.5c1.2.1 2 .4 2.3 1 .3.4.4 1 .1 1.8-.5 2.3-3.8 3.2-6.4 3.2zM201.5 70.7s-10.8 18.6-11.6 20c-.1-1.6-1.5-20-1.5-20h-9.3l3.9 33.8h6.9l21-33.8h-9.4zM70.5 70.3c-9.1 0-16.4 6.6-19.1 17.2-1.5 6-1.2 10.6 1.1 13.5 2 2.6 5.4 3.9 10.2 3.9 6.2 0 10-2 14.1-5.3l.2-.1-4-5.4-.2.2c-2.6 2-4.5 3.1-8.2 3.1-2 0-3.6-.6-4.5-1.8-.6-.8-.9-1.9-.9-3.1 0-.6.1-1.3.3-2h20.8l1-3.9c.5-1.8.7-3.6.7-5.2 0-2.9-.7-5.3-2.2-7.2-2-2.5-5.2-3.9-9.3-3.9zm2.6 14h-12c.4-1.2.8-2.1 1.5-3.2.9-1.3 2.9-3.3 6.2-3.3 2.4 0 4 1.1 4.4 3.2.1.5.1.9.1 1.3 0 .6 0 1.2-.2 2zM358.4 74.2c-1.9-2.5-5.1-3.8-9.2-3.8-9.1 0-16.4 6.6-19.1 17.2-1.5 6-1.2 10.6 1.1 13.5 2 2.6 5.4 3.9 10.2 3.9 6.2 0 10-2 14.1-5.3l.2-.1-4.1-5.3-.2.2c-2.6 2-4.5 3.1-8.2 3.1-2 0-3.6-.6-4.5-1.8-.6-.8-.9-1.9-.9-3.1 0-.6.1-1.3.3-2h20.8l1-3.9c.5-1.8.7-3.6.7-5.2 0-3.1-.7-5.6-2.2-7.4zm-6.6 10.1h-12c.4-1.2.8-2.1 1.5-3.2 1.5-2.2 3.7-3.3 6.2-3.3 2.4 0 4 1.1 4.4 3.2.1.5.1.9.1 1.3 0 .6-.1 1.2-.2 2zM236.2 73.9c-1.8-2.3-5.3-3.6-10.5-3.6-5.9 0-9.3 1.2-13.3 4.7l-.2.2 4.3 5.6.2-.2c2.3-2 3.9-2.7 6.9-2.7 2.3 0 3.7.4 4.4 1.3.3.5.5 1 .5 1.8 0 .5-.1 1.1-.3 1.8 0 0-.3 1.1-.4 1.5h-7.7c-8.5 0-12.9 5.1-14.1 9.8-.3 1.1-.4 2.2-.4 3.2 0 1.8.4 3.3 1.3 4.6 1.5 2 4.1 3 8 3 3.4 0 5.8-.8 8.5-2.8-.2.8-.6 2.5-.6 2.5h8.6l5.6-22.1c1.1-3.7.8-6.6-.8-8.6zm-10.3 18c-.5 2.1-1.2 3.3-2.2 4.1-1.7 1.3-3.1 1.5-5.5 1.5-1.6 0-2.7-.4-3.3-1.1-.3-.4-.4-.9-.4-1.4 0-.3.1-.6.1-1 .6-2.3 2.5-3.6 5.4-3.6h6.2c0 .5-.3 1.5-.3 1.5zM326.4 58.3h-9.5l-6.5 9.9h6.1zM380.8 77.7c3.4 0 5.7.7 7 2.1l.2.2 6.8-5.5-.2-.2c-2.2-2.8-5.9-4-11.9-4-6.3 0-13.9 3.4-15.8 10.8-.7 2.8-.5 5 .6 6.6 1.2 1.8 3.5 2.8 7 3.1l5.1.5c1.2.1 2 .4 2.4 1 .3.4.3 1 .2 1.8-.6 2.4-3.9 3.2-6.5 3.2-2.4 0-5.8-.3-7.9-3l-.2-.2-7.2 5.8.2.2c3.4 4.5 8.4 4.9 13.2 4.9 8.8 0 15.4-4.2 17.1-11.1.7-2.8.5-5.1-.7-6.9-1.3-1.8-3.6-2.9-6.9-3.2l-5.1-.5c-1.2-.1-2-.4-2.3-.9-.3-.4-.3-.9-.2-1.6.2-1.5 1.8-3.1 5.1-3.1zM324.9 86.6c.5-1.8.7-3.6.7-5.2 0-2.9-.7-5.3-2.2-7.2-1.9-2.5-5.1-3.8-9.2-3.8-9.1 0-16.4 6.6-19 17.2-1.5 6-1.2 10.6 1.1 13.5 2 2.6 5.4 3.9 10.2 3.9 6.2 0 10-2 14.1-5.3l.2-.1-4.1-5.3-.2.2c-2.5 2-4.5 3.1-8.2 3.1-2 0-3.6-.6-4.5-1.8-.6-.8-1-1.9-1-3.1 0-.6.1-1.3.3-2h20.8l1-4.1zm-8.1-2.3h-12c.4-1.2.8-2.1 1.5-3.2 1.5-2.2 3.7-3.3 6.2-3.3 2.4 0 4 1.1 4.4 3.2.1.5.1.9.1 1.4 0 .5-.1 1.1-.2 1.9zM290.5 97h-11.3c-.9 0-1.5-.2-1.8-.6-.3-.4-.4-1.1-.1-2.1l9.1-35.8h-8.8l-9.2 36.1c-.7 2.9-.4 5.4 1 7.2 1.3 1.8 3.5 2.6 6.5 2.6h12.7l1.9-7.4zM263 97h-11.3c-.9 0-1.5-.2-1.8-.6-.3-.4-.4-1.1-.1-2.1l9.1-35.8h-8.8l-9.2 36.1c-.7 2.9-.4 5.4 1 7.2 1.4 1.8 3.5 2.6 6.5 2.6h12.7L263 97zM388.7 57.9h.9V56h.6l1 1.9h1l-1-2c.5-.2.9-.6.9-1.3 0-.8-.6-1.4-1.5-1.4h-1.8v4.7zm.8-4h.8c.5 0 .8.3.8.7 0 .4-.3.7-.8.7h-.8v-1.4z"/><path fill="#4B4B4D" d="M385.8 55.6c0 2.4 2 4.4 4.4 4.4 2.4 0 4.4-1.9 4.4-4.4 0-2.4-2-4.4-4.4-4.4-2.4 0-4.4 2-4.4 4.4zm7.9 0c0 2-1.5 3.6-3.5 3.6s-3.5-1.6-3.5-3.6 1.5-3.5 3.5-3.5 3.5 1.5 3.5 3.5z"/></svg>